<svg id="Capa_1" enable-background="new 0 0 512 512" height="512" viewBox="0 0 512 512" width="512" xmlns="http://www.w3.org/2000/svg"><g><g><g><path d="m503.436 8.553-189.321 187.447-58.115-57.54 138.383-137.013c.936-.927 2.2-1.447 3.518-1.447h102.018c4.466 0 6.691 5.411 3.517 8.553z" fill="#fd4755"/><path d="m301 138.46-22.5-22.277-22.5 22.277 58.115 57.54 22.5-22.277z" fill="#fb2b3a"/><path d="m114.099 0c1.317 0 2.582.52 3.518 1.447l138.383 137.013 58.115 57.54h-116.23l-189.25-187.448c-3.173-3.142-.948-8.552 3.518-8.552z" fill="#fd4755"/></g><path d="m282.232 308.998h-52.464v-72.464c0-5.523 4.477-10 10-10h32.464c5.523 0 10 4.477 10 10z" fill="#fed402"/><path d="m272.232 226.534h-30c5.523 0 10 4.477 10 10v72.464h30v-72.464c0-5.523-4.477-10-10-10z" fill="#fac600"/><circle cx="256" cy="400.008" fill="#fed402" r="104.492"/><path d="m287.059 300.21c26.306 18.975 43.433 49.885 43.433 84.798 0 57.709-46.782 104.492-104.492 104.492-10.815 0-21.247-1.643-31.058-4.694 17.175 12.39 38.262 19.694 61.058 19.694 57.709 0 104.492-46.782 104.492-104.492 0-46.893-30.891-86.572-73.433-99.798z" fill="#fac600"/><path d="m325.515 400.008c0 38.331-31.184 69.515-69.515 69.515s-69.515-31.184-69.515-69.515 31.184-69.515 69.515-69.515 69.515 31.184 69.515 69.515" fill="#fee97d"/><path d="m271.086 332.161c14.934 12.76 24.429 31.71 24.429 52.847 0 38.331-31.185 69.515-69.515 69.515-5.181 0-10.225-.588-15.086-1.668 12.148 10.38 27.892 16.668 45.086 16.668 38.331 0 69.515-31.184 69.515-69.515 0-33.149-23.33-60.936-54.429-67.847z" fill="#fee45a"/></g><path d="m283.777 121.513 109.769-108.683c2.943-2.915 2.967-7.663.053-10.606-2.915-2.943-7.664-2.967-10.606-.054l-109.77 108.683c-2.943 2.915-2.967 7.663-.053 10.606 2.916 2.944 7.664 2.967 10.607.054zm-104.792 278.496c0 4.143 3.358 7.5 7.5 7.5s7.5-3.357 7.5-7.5c0-34.195 27.82-62.016 62.015-62.016s62.015 27.82 62.015 62.016-27.82 62.015-62.015 62.015c-24.362 0-46.578-14.394-56.598-36.67-1.699-3.777-6.139-5.463-9.917-3.764s-5.462 6.139-3.763 9.916c12.437 27.651 40.022 45.518 70.277 45.518 42.466 0 77.015-34.549 77.015-77.015 0-42.467-34.549-77.016-77.015-77.016s-77.014 34.549-77.014 77.016zm330.845-397.786c-2.915-2.943-7.664-2.966-10.606-.053l-185.109 183.275-185.108-183.275c-2.943-2.913-7.691-2.889-10.606.053-2.915 2.944-2.891 7.692.053 10.607l177.426 175.67h-94.91l-188.193-186.33c-2.943-2.913-7.692-2.889-10.607.053-2.914 2.944-2.89 7.692.053 10.607l180.508 178.721c-1.886 1.061-3.645 2.38-5.223 3.954-4.506 4.521-6.988 10.521-6.988 16.896 0 9.82 6.157 18.782 15.316 22.3l36.434 14.021v44.49c-45.32 14.345-78.262 56.795-78.262 106.798 0 61.751 50.24 111.99 111.992 111.99s111.992-50.239 111.992-111.991c0-50.003-32.942-92.453-78.262-106.798v-44.49l36.434-14.021c4.53-1.743 8.375-4.777 11.112-8.765 2.75-3.991 4.204-8.672 4.204-13.535 0-8.938-4.935-16.741-12.22-20.84l180.517-178.73c2.943-2.915 2.967-7.663.053-10.607zm-156.838 397.786c0 53.481-43.511 96.991-96.992 96.991s-96.992-43.51-96.992-96.991 43.51-96.992 96.992-96.992 96.992 43.51 96.992 96.992zm-115.722-110.418v-53.061c0-1.379 1.122-2.5 2.5-2.5h32.46c1.378 0 2.5 1.121 2.5 2.5v53.061c-6.093-1.03-12.349-1.575-18.73-1.575s-12.637.545-18.73 1.575zm83.507-68.891-31.455 12.105c-1.713-7.864-8.721-13.775-17.092-13.775h-32.46c-8.37 0-15.378 5.91-17.092 13.775l-31.46-12.107c-3.408-1.309-5.698-4.644-5.698-8.298 0-4.859 4.062-8.922 8.9-8.9h123.16c4.907 0 8.9 3.993 8.9 8.9 0 3.633-2.303 7.002-5.703 8.3z"/></g></svg>